<?xml version="1.0" standalone="no"?>
<!DOCTYPE svg PUBLIC "-//W3C//DTD SVG 20010904//EN"
 "http://www.w3.org/TR/2001/REC-SVG-20010904/DTD/svg10.dtd">
<svg version="1.0" xmlns="http://www.w3.org/2000/svg"
 width="1024.000000pt" height="1024.000000pt" viewBox="0 0 1024.000000 1024.000000"
 preserveAspectRatio="xMidYMid meet">
<metadata>
Created by potrace 1.11, written by Peter Selinger 2001-2013
</metadata>
<g transform="translate(0.000000,1024.000000) scale(0.100000,-0.100000)"
fill="#000000" stroke="none">
<path d="M2796 8123 c-1 -1 -24 -5 -51 -9 -27 -3 -60 -10 -72 -15 -13 -5 -23
-5 -23 -2 0 4 -5 2 -12 -5 -7 -7 -20 -12 -29 -12 -10 0 -64 -23 -120 -51 -133
-68 -249 -165 -318 -268 -14 -20 -32 -47 -41 -61 -9 -14 -47 -102 -85 -195
-37 -94 -73 -183 -80 -200 -10 -24 -311 -790 -505 -1285 l-37 -95 -71 -26
c-291 -108 -510 -361 -567 -654 -11 -56 -14 -242 -15 -903 0 -732 2 -837 15
-869 22 -52 52 -82 109 -109 49 -23 56 -23 395 -24 190 0 346 -1 347 -3 1 -1
5 -38 8 -82 20 -272 94 -480 242 -681 259 -352 644 -545 1074 -538 448 7 820
209 1075 584 75 110 149 272 171 373 30 140 40 213 43 320 l1 27 870 0 870 0
1 -32 c5 -234 77 -478 196 -662 129 -200 325 -379 523 -477 70 -34 177 -76
212 -83 13 -2 42 -9 66 -15 81 -22 188 -34 312 -34 270 0 505 69 716 212 96
66 115 82 217 185 190 193 326 466 353 711 4 33 8 71 9 85 2 14 3 44 4 68 l1
42 336 0 c220 0 351 4 381 12 61 15 127 78 142 135 17 63 13 1262 -4 1363 -26
152 -47 224 -106 355 -124 279 -437 566 -724 665 -60 21 -163 49 -200 55 -11
2 -38 7 -60 10 -57 10 -131 14 -285 15 l-135 1 -35 46 c-19 26 -40 51 -45 57
-6 6 -99 123 -208 259 -109 136 -204 256 -212 265 -8 9 -64 80 -125 157 -61
77 -119 149 -128 160 -10 11 -134 166 -277 345 -143 178 -267 334 -277 345 -9
11 -53 66 -97 122 -155 193 -261 281 -421 349 -169 71 -63 67 -1778 68 -849 1
-1544 0 -1546 -1z m1128 -1517 c1 -424 -2 -650 -9 -652 -5 -2 -357 -3 -781 -2
l-772 3 57 145 c32 80 95 240 141 355 229 582 313 790 320 795 5 3 241 5 526
5 l518 0 0 -649z m1880 629 c11 -17 337 -425 379 -475 7 -8 86 -107 176 -220
90 -113 176 -219 190 -236 14 -17 38 -46 53 -65 14 -19 72 -90 127 -159 l101
-125 -1118 -3 c-614 -1 -1121 0 -1127 2 -7 2 -9 226 -8 647 0 354 1 646 2 649
1 3 273 5 606 5 592 0 605 -1 619 -20z m-2679 -3268 c191 -51 381 -231 438
-417 43 -137 43 -291 1 -417 -68 -203 -239 -366 -444 -422 -99 -28 -283 -24
-380 7 -202 66 -371 245 -426 452 -23 85 -23 253 -1 337 36 138 110 250 227
344 84 68 160 102 295 133 49 11 224 1 290 -17z m4375 -6 c205 -69 370 -242
425 -446 20 -75 27 -214 14 -280 -5 -27 -11 -61 -14 -74 -8 -43 -75 -174 -113
-221 -86 -106 -198 -185 -312 -221 -41 -13 -105 -23 -175 -26 -199 -10 -342
45 -488 186 -130 128 -196 291 -191 476 5 199 81 360 231 485 74 62 144 100
232 126 102 31 292 28 391 -5z"/>
</g>
</svg>
